<svg width="1728" height="1407" viewBox="0 0 1728 1407" fill="none" xmlns="http://www.w3.org/2000/svg">
<g clip-path="url(#clip0_31_4023)">
<rect width="1728" height="1407" fill="white"/>
<path d="M1064.95 635.033C1050.15 630.233 1018.12 589.366 1003.95 569.533C935.453 562.533 925.451 564.533 816.452 535.033C692.952 577.533 635.452 717.533 766.952 774.033C898.452 830.533 1051.95 655.033 1064.95 635.033Z" fill="#964E50"/>
<path d="M1205.45 708.033C1198.25 708.033 1129.78 673.366 1096.45 656.033C1079.65 686.033 1043.12 719.866 1026.95 733.033L1138.45 798.533H1259.95C1286.28 782.866 1345.55 747.833 1371.95 733.033C1346.95 716.033 1307.95 660.533 1306.95 663.033C1305.95 665.533 1214.45 708.033 1205.45 708.033Z" fill="#964E50"/>
<path d="M1405.45 568.533C1402.65 585.333 1358.95 624.533 1337.45 642.033C1369.45 703.633 1461.12 752.699 1502.95 769.533C1547.28 787.033 1646.85 802.033 1690.45 722.033C1744.95 622.033 1614.95 549.033 1580.45 535.033C1545.95 554.533 1443.95 566.533 1405.45 568.533Z" fill="#964E50"/>
<path d="M1391.95 510.033C1389.95 578.033 1266.78 645.033 1205.45 670.033C1126.95 649.033 1052.45 577.533 1040.95 561.533C1029.45 545.533 992.951 472.033 1046.45 488.533C1099.95 505.033 1134.45 466.033 1205.45 412.533C1305.45 514.533 1359.45 490.533 1365.45 488.533C1371.45 486.533 1391.95 490.033 1391.95 510.033Z" fill="#964E50"/>
<path d="M1029.95 453.033C979.951 456.233 980.118 507.366 986.451 532.533C887.951 532.533 816.452 502.533 741.951 450.033C682.351 408.033 690.451 309.533 701.951 265.533C734.284 265.366 800.151 269.033 804.951 285.033C810.951 305.033 870.951 365.033 928.451 374.033C985.951 383.033 1012.95 426.533 1029.95 453.033Z" fill="#964E50"/>
<path d="M1161.95 402.033C1119.95 445.633 1081.78 454.199 1067.95 453.033C1048.75 395.433 1009.28 368.366 991.951 362.033C972.451 326.199 928.851 247.733 910.451 220.533C938.951 212.033 997.451 234.033 1015.45 251.033C1033.45 268.033 1049.95 295.533 1072.45 294.533C1094.95 293.533 1125.45 329.533 1161.95 402.033Z" fill="#964E50"/>
<path d="M1209.45 371.033C1205.45 366.633 1194.12 372.866 1188.95 376.533C1131.45 264.533 1122.45 280.533 1079.95 258.533C1069.45 174.533 1097.45 176.533 1120.45 176.533C1138.85 176.533 1140.78 159.533 1139.45 151.033C1139.12 134.866 1150.95 102.833 1200.95 104.033C1250.95 105.233 1260.12 135.866 1258.45 151.033C1255.62 159.033 1257.15 175.333 1285.95 176.533C1321.95 178.033 1319.95 205.033 1317.95 260.533C1237.95 274.033 1214.45 376.533 1209.45 371.033Z" fill="#964E50"/>
<path d="M1324.95 453.033C1308.15 453.033 1262.28 414.366 1241.45 395.033C1248.45 344.033 1299.95 296.533 1325.95 295.533C1351.95 294.533 1352.95 286.533 1361.95 269.033C1398.35 224.633 1461.78 218.199 1488.95 220.533C1469.12 254.199 1424.55 329.433 1404.95 361.033C1363.95 375.533 1335.45 433.033 1324.95 453.033Z" fill="#964E50"/>
<path d="M1423.95 531.033C1435.55 473.033 1390.78 454.866 1366.95 453.033C1412.45 385.033 1452.45 374.033 1500.95 369.033C1561.45 351.033 1568.95 295.033 1601.45 275.533C1627.45 259.933 1694.62 263.033 1724.95 266.533C1730.78 272.199 1733.55 305.033 1697.95 391.033C1653.45 498.533 1510.45 517.033 1423.95 531.033Z" fill="#964E50"/>
<path d="M1105.37 814.26C1102.74 812.528 1100.56 810.933 1098.95 809.533C1101.15 811.109 1103.29 812.685 1105.37 814.26C1128.1 829.225 1184.61 854.481 1198.95 854.033C1211.75 853.633 1273.95 824.199 1303.45 809.533C1280.45 824.199 1234.25 864.333 1233.45 907.533C1232.65 950.733 1233.12 1258.53 1233.45 1407.03H1165.45L1169.45 907.533C1169.93 892.626 1157.56 853.855 1105.37 814.26Z" fill="#964E50"/>
<path d="M1264.45 1260.03C1290.12 1182.03 1388.15 1037.23 1574.95 1082.03C1505.95 1203.53 1470.95 1283.53 1264.45 1260.03Z" fill="#964E50"/>
<path d="M1126.95 1119.03C1092.12 1039.37 982.251 892.433 821.451 942.033C848.451 1020.53 875.919 1126.53 1126.95 1119.03Z" fill="#964E50"/>
</g>
<defs>
<clipPath id="clip0_31_4023">
<rect width="1728" height="1407" fill="white"/>
</clipPath>
</defs>
</svg>
