<svg width="24" height="35" viewBox="0 0 24 35" fill="none" xmlns="http://www.w3.org/2000/svg">
<path fill-rule="evenodd" clip-rule="evenodd" d="M23.962 0.448237C24.0308 0.799029 23.9907 6.35741 23.962 9.09275H18.5175C16.2652 9.13451 11.5495 10.5314 10.706 15.7849C10.0927 15.8893 9.73758 15.9311 9.07048 16.5053C8.75844 17.1108 8.67236 17.0169 8.51097 17.0169C8.34957 17.0169 7.70399 17.1213 7.06916 18.5203C7.97298 19.2407 8.30653 19.5121 8.51097 19.533C8.51097 19.3033 9.35023 18.0191 9.74834 18.0713C10.0238 17.6537 10.4011 16.9577 10.5553 16.6619C10.5051 17.1422 10.4348 18.1361 10.5553 18.2697C10.2325 18.3741 9.53314 18.75 9.14579 19.4808C9.6515 19.5956 10.2002 19.9088 10.0496 20.7127C10.3401 20.7127 10.7598 20.7023 11.1041 20.6083C11.1686 20.8171 11.33 21.1199 11.3408 21.1303C11.3515 21.1408 10.4154 21.3287 9.78062 21.2974C9.30719 21.8904 8.80148 22.3101 8.60781 22.4458C9.0382 23.0618 10.2067 24.3417 11.4376 24.5338C12.6685 24.7259 13.6219 24.3981 13.9446 24.2102C14.7193 24.7844 16.8627 25.8953 19.2384 25.7449C21.6142 25.5946 23.3558 25.4595 23.9297 25.4108V34.3059H18.5283C17.0363 34.3825 13.1269 34.0846 9.42555 32.2805C10.6306 31.8316 12.1047 31.0277 12.4813 29.3781C11.0395 29.1797 9.8667 29.0231 7.85462 31.3618C7.45006 31.1112 7.06916 30.8467 6.92928 30.7458V26.5697C7.12655 26.1799 7.56626 25.3628 7.74702 25.2125C7.97298 25.0245 6.84321 25.8493 6.41282 25.8389C6.0685 25.8305 5.39422 25.4178 5.10012 25.2125C5.36553 25.6649 5.8985 26.5697 5.90711 26.5697C5.91571 26.5697 5.88917 28.8387 5.87483 29.9732C5.57355 29.7226 4.95379 29.1985 4.88493 29.1067C4.79885 28.9918 2.03359 26.1312 1.50637 24.5338C2.63614 23.897 3.13109 23.8552 4.2501 22.3832C3.63895 21.882 3.32118 21.4435 3.23869 21.2869C2.58593 21.3078 1.07813 21.241 0.268994 20.8067C0.208739 20.339 0.179329 20.1594 0.172156 20.1281C0.688624 20.403 1.96688 20.9048 2.94817 20.7127C2.87286 20.2847 2.91589 19.6791 3.65832 19.5121C2.87286 18.6456 2.89437 18.2593 1.58168 18.1862C0.531532 18.1277 0.0896646 17.2083 0 16.7559C0.132704 15.1794 0.634826 11.659 1.58168 10.189C2.76526 8.35149 7.47803 -0.888112 23.962 0.448237ZM5.78875 18.6873C5.28089 19.272 4.58724 19.4947 4.3039 19.533C4.15757 18.6978 3.38215 18.1757 3.01273 18.0191C2.76167 17.5841 2.15626 16.5366 1.74308 15.8267C3.01273 15.7432 3.43236 16.2652 4.08871 16.9751C5.05709 17.0378 5.36912 17.7895 5.78875 18.6873ZM6.59573 18.1862C6.49244 18.1528 6.32315 18.2697 6.25142 18.3323C5.63166 16.9208 4.81678 16.4983 4.48682 16.4635C4.45454 16.3765 4.40935 16.0835 4.48682 15.6074C4.58366 15.0124 5.15392 15.1168 5.2938 15.0959C5.4057 15.0792 5.44085 14.908 5.44444 14.8244C5.41933 14.5495 5.57355 13.9997 6.3913 13.9997C7.20904 13.9997 7.38478 14.5495 7.37043 14.8244C7.35967 14.9254 7.38765 15.1314 7.58563 15.1481C8.44641 15.1168 8.42489 15.8998 8.30653 16.4635C7.20904 16.6838 6.73561 17.873 6.59573 18.1862ZM5.28304 19.7522L6.49889 18.8335C7.78853 20.0654 8.41413 20.1176 8.95212 20.055C9.49011 19.9923 9.58694 20.2325 9.38251 20.7962C9.17807 21.36 8.30653 22.0595 6.46661 22.8947C4.4115 22.498 2.56082 19.9297 3.70136 20.055C4.61378 20.1552 5.13599 19.8949 5.28304 19.7522ZM6.46661 23.4898L4.71277 22.6546L3.61528 23.8657L5.42292 24.9619H7.33815C7.76137 24.7252 8.71971 24.1747 9.16731 23.8657C8.83161 23.6318 8.33881 22.9608 8.13438 22.6546L6.46661 23.4898Z" fill="#964E50"/>
</svg>
